<svg xmlns="http://www.w3.org/2000/svg" xmlns:xlink="http://www.w3.org/1999/xlink" width="1080" zoomAndPan="magnify" viewBox="0 0 810 809.999993" height="1080" preserveAspectRatio="xMidYMid meet" version="1.0"><defs><clipPath id="2278180d95"><path d="M 81 65.742188 L 759.75 65.742188 L 759.75 744.492188 L 81 744.492188 Z M 81 65.742188 " clip-rule="nonzero"/></clipPath></defs><rect x="-81" width="972" fill="#ffffff" y="-80.999999" height="971.999992" fill-opacity="1"/><rect x="-81" width="972" fill="#1c398e" y="-80.999999" height="971.999992" fill-opacity="1"/><path stroke-linecap="round" transform="matrix(28.281248, 0, 0, 28.281248, 80.999999, 65.743185)" fill="none" stroke-linejoin="round" d="M 7.000001 18.999966 C 7.06547 18.999966 7.130802 18.996789 7.195995 18.990436 C 7.261188 18.983944 7.325967 18.974414 7.390194 18.961568 C 7.45442 18.948723 7.517818 18.932839 7.580525 18.913916 C 7.643233 18.894856 7.704835 18.872756 7.765332 18.847756 C 7.825829 18.822756 7.885083 18.794717 7.942818 18.763778 C 8.000553 18.732977 8.05663 18.699275 8.111188 18.662949 C 8.165608 18.626485 8.218095 18.587535 8.268785 18.545961 C 8.319476 18.504524 8.367956 18.460463 8.414227 18.414193 C 8.460498 18.367922 8.504421 18.319441 8.545995 18.268751 C 8.58757 18.218198 8.62652 18.165574 8.662984 18.111154 C 8.69931 18.056734 8.733012 18.000519 8.763813 17.942784 C 8.794752 17.885049 8.822653 17.825933 8.847791 17.765297 C 8.872791 17.7048 8.89489 17.643198 8.913813 17.580629 C 8.932874 17.517922 8.948758 17.454386 8.961603 17.390159 C 8.97431 17.325933 8.983979 17.261292 8.990332 17.196099 C 8.996824 17.130905 9.000001 17.065436 9.000001 16.999966 C 9.000001 16.934496 8.996824 16.869165 8.990332 16.803971 C 8.983979 16.738778 8.97431 16.673999 8.961603 16.609773 C 8.948758 16.545546 8.932874 16.482148 8.913813 16.419441 C 8.89489 16.356734 8.872791 16.295132 8.847791 16.234634 C 8.822653 16.174137 8.794752 16.115021 8.763813 16.057148 C 8.733012 15.999413 8.69931 15.943336 8.662984 15.888916 C 8.62652 15.834358 8.58757 15.781872 8.545995 15.731181 C 8.504421 15.680629 8.460498 15.632148 8.414227 15.585739 C 8.367956 15.539469 8.319476 15.495546 8.268785 15.453971 C 8.218095 15.412397 8.165608 15.373446 8.111188 15.337121 C 8.05663 15.300656 8.000553 15.267093 7.942818 15.236154 C 7.885083 15.205214 7.825829 15.177314 7.765332 15.152176 C 7.704835 15.127176 7.643233 15.105076 7.580525 15.086154 C 7.517818 15.067093 7.45442 15.051209 7.390194 15.038364 C 7.325967 15.025656 7.261188 15.015988 7.195995 15.009634 C 7.130802 15.003143 7.06547 14.999966 7.000001 14.999966 C 6.934531 14.999966 6.869199 15.003143 6.804006 15.009634 C 6.738813 15.015988 6.674034 15.025656 6.609807 15.038364 C 6.545581 15.051209 6.482045 15.067093 6.419476 15.086154 C 6.356768 15.105076 6.295166 15.127176 6.234669 15.152176 C 6.174172 15.177314 6.114918 15.205214 6.057183 15.236154 C 5.999448 15.267093 5.943371 15.300656 5.888813 15.337121 C 5.834393 15.373446 5.781907 15.412397 5.731216 15.453971 C 5.680525 15.495546 5.632045 15.539469 5.585774 15.585739 C 5.539503 15.632148 5.495581 15.680629 5.454006 15.731181 C 5.412431 15.781872 5.373481 15.834358 5.337017 15.888916 C 5.300691 15.943336 5.266989 15.999413 5.236188 16.057148 C 5.205249 16.115021 5.177348 16.174137 5.15221 16.234634 C 5.12721 16.295132 5.105111 16.356734 5.08605 16.419441 C 5.067127 16.482148 5.051243 16.545546 5.038398 16.609773 C 5.025691 16.673999 5.016022 16.738778 5.009669 16.803971 C 5.003177 16.869165 5 16.934496 5 16.999966 C 5 17.065436 5.003177 17.130905 5.009669 17.196099 C 5.016022 17.261292 5.025691 17.325933 5.038398 17.390159 C 5.051243 17.454386 5.067127 17.517922 5.08605 17.580629 C 5.105111 17.643198 5.12721 17.7048 5.15221 17.765297 C 5.177348 17.825933 5.205249 17.885049 5.236188 17.942784 C 5.266989 18.000519 5.300691 18.056734 5.337017 18.111154 C 5.373481 18.165574 5.412431 18.218198 5.454006 18.268751 C 5.495581 18.319441 5.539503 18.367922 5.585774 18.414193 C 5.632045 18.460463 5.680525 18.504524 5.731216 18.545961 C 5.781907 18.587535 5.834393 18.626485 5.888813 18.662949 C 5.943371 18.699275 5.999448 18.732977 6.057183 18.763778 C 6.114918 18.794717 6.174172 18.822756 6.234669 18.847756 C 6.295166 18.872756 6.356768 18.894856 6.419476 18.913916 C 6.482045 18.932839 6.545581 18.948723 6.609807 18.961568 C 6.674034 18.974414 6.738813 18.983944 6.804006 18.990436 C 6.869199 18.996789 6.934531 18.999966 7.000001 18.999966 M 17.000001 18.999966 C 17.065471 18.999966 17.130802 18.996789 17.195996 18.990436 C 17.261189 18.983944 17.325968 18.974414 17.390195 18.961568 C 17.454421 18.948723 17.517819 18.932839 17.580526 18.913916 C 17.643233 18.894856 17.704836 18.872756 17.765333 18.847756 C 17.82583 18.822756 17.885084 18.794717 17.942819 18.763778 C 18.000554 18.732977 18.056631 18.699275 18.111189 18.662949 C 18.165609 18.626485 18.218095 18.587535 18.268786 18.545961 C 18.319476 18.504524 18.367957 18.460463 18.414228 18.414193 C 18.460499 18.367922 18.504421 18.319441 18.545996 18.268751 C 18.58757 18.218198 18.626521 18.165574 18.662985 18.111154 C 18.699311 18.056734 18.733012 18.000519 18.763814 17.942784 C 18.794753 17.885049 18.822653 17.825933 18.847791 17.765297 C 18.872791 17.7048 18.894891 17.643198 18.913814 17.580629 C 18.932874 17.517922 18.948758 17.454386 18.961604 17.390159 C 18.974311 17.325933 18.983979 17.261292 18.990333 17.196099 C 18.996825 17.130905 19.000001 17.065436 19.000001 16.999966 C 19.000001 16.934496 18.996825 16.869165 18.990333 16.803971 C 18.983979 16.738778 18.974311 16.673999 18.961604 16.609773 C 18.948758 16.545546 18.932874 16.482148 18.913814 16.419441 C 18.894891 16.356734 18.872791 16.295132 18.847791 16.234634 C 18.822653 16.174137 18.794753 16.115021 18.763814 16.057148 C 18.733012 15.999413 18.699311 15.943336 18.662985 15.888916 C 18.626521 15.834358 18.58757 15.781872 18.545996 15.731181 C 18.504421 15.680629 18.460499 15.632148 18.414228 15.585739 C 18.367957 15.539469 18.319476 15.495546 18.268786 15.453971 C 18.218095 15.412397 18.165609 15.373446 18.111189 15.337121 C 18.056631 15.300656 18.000554 15.267093 17.942819 15.236154 C 17.885084 15.205214 17.82583 15.177314 17.765333 15.152176 C 17.704836 15.127176 17.643233 15.105076 17.580526 15.086154 C 17.517819 15.067093 17.454421 15.051209 17.390195 15.038364 C 17.325968 15.025656 17.261189 15.015988 17.195996 15.009634 C 17.130802 15.003143 17.065471 14.999966 17.000001 14.999966 C 16.934532 14.999966 16.8692 15.003143 16.804007 15.009634 C 16.738813 15.015988 16.674034 15.025656 16.609808 15.038364 C 16.545581 15.051209 16.482045 15.067093 16.419476 15.086154 C 16.356769 15.105076 16.295167 15.127176 16.23467 15.152176 C 16.174172 15.177314 16.114918 15.205214 16.057184 15.236154 C 15.999449 15.267093 15.943371 15.300656 15.888813 15.337121 C 15.834393 15.373446 15.781907 15.412397 15.731217 15.453971 C 15.680526 15.495546 15.632045 15.539469 15.585775 15.585739 C 15.539504 15.632148 15.495581 15.680629 15.454007 15.731181 C 15.412432 15.781872 15.373482 15.834358 15.337018 15.888916 C 15.300692 15.943336 15.26699 15.999413 15.236189 16.057148 C 15.20525 16.115021 15.177349 16.174137 15.152211 16.234634 C 15.127211 16.295132 15.105112 16.356734 15.086051 16.419441 C 15.067128 16.482148 15.051244 16.545546 15.038399 16.609773 C 15.025692 16.673999 15.016023 16.738778 15.00967 16.803971 C 15.003178 16.869165 15.000001 16.934496 15.000001 16.999966 C 15.000001 17.065436 15.003178 17.130905 15.00967 17.196099 C 15.016023 17.261292 15.025692 17.325933 15.038399 17.390159 C 15.051244 17.454386 15.067128 17.517922 15.086051 17.580629 C 15.105112 17.643198 15.127211 17.7048 15.152211 17.765297 C 15.177349 17.825933 15.20525 17.885049 15.236189 17.942784 C 15.26699 18.000519 15.300692 18.056734 15.337018 18.111154 C 15.373482 18.165574 15.412432 18.218198 15.454007 18.268751 C 15.495581 18.319441 15.539504 18.367922 15.585775 18.414193 C 15.632045 18.460463 15.680526 18.504524 15.731217 18.545961 C 15.781907 18.587535 15.834393 18.626485 15.888813 18.662949 C 15.943371 18.699275 15.999449 18.732977 16.057184 18.763778 C 16.114918 18.794717 16.174172 18.822756 16.23467 18.847756 C 16.295167 18.872756 16.356769 18.894856 16.419476 18.913916 C 16.482045 18.932839 16.545581 18.948723 16.609808 18.961568 C 16.674034 18.974414 16.738813 18.983944 16.804007 18.990436 C 16.8692 18.996789 16.934532 18.999966 17.000001 18.999966 " stroke="#ffffff" stroke-width="1.5" stroke-opacity="1" stroke-miterlimit="1.5"/><g clip-path="url(#2278180d95)"><path stroke-linecap="round" transform="matrix(28.281248, 0, 0, 28.281248, 80.999999, 65.743185)" fill="none" stroke-linejoin="miter" d="M 14.000001 16.999966 L 14.000001 6.599965 C 14.000001 6.580352 13.999034 6.560739 13.9971 6.541125 C 13.995167 6.52165 13.992266 6.502175 13.988537 6.482976 C 13.98467 6.463639 13.979835 6.444578 13.974172 6.425794 C 13.968509 6.407009 13.961879 6.388501 13.954283 6.370407 C 13.946824 6.352175 13.938399 6.334496 13.929145 6.31723 C 13.919891 6.299827 13.909808 6.282976 13.898896 6.266678 C 13.887984 6.25038 13.876244 6.234496 13.863813 6.219302 C 13.851382 6.204109 13.838123 6.189606 13.82431 6.175794 C 13.81036 6.161844 13.795857 6.148722 13.780664 6.136153 C 13.765471 6.123722 13.749725 6.111982 13.733288 6.10107 C 13.71699 6.090159 13.700139 6.080076 13.682874 6.070822 C 13.665471 6.061567 13.647791 6.053142 13.629559 6.045683 C 13.611465 6.038087 13.592957 6.031595 13.574172 6.025794 C 13.555388 6.020131 13.536327 6.015297 13.51699 6.011567 C 13.497791 6.0077 13.478316 6.004799 13.458841 6.002866 C 13.439228 6.000932 13.419614 5.999965 13.400001 5.999965 L 2.6 5.999965 C 2.580387 5.999965 2.560774 6.000932 2.54116 6.002866 C 2.521685 6.004799 2.50221 6.0077 2.483011 6.011567 C 2.463674 6.015297 2.444613 6.020131 2.425829 6.025794 C 2.407044 6.031595 2.388536 6.038087 2.370442 6.045683 C 2.35221 6.053142 2.334531 6.061567 2.317127 6.070822 C 2.299862 6.080076 2.283011 6.090159 2.266713 6.10107 C 2.250276 6.111982 2.234531 6.123722 2.219337 6.136153 C 2.204144 6.148722 2.189641 6.161844 2.175691 6.175794 C 2.161879 6.189606 2.148619 6.204109 2.136188 6.219302 C 2.123757 6.234496 2.112017 6.25038 2.101105 6.266678 C 2.090194 6.282976 2.080111 6.299827 2.070857 6.31723 C 2.061602 6.334496 2.053177 6.352175 2.045718 6.370407 C 2.038122 6.388501 2.031492 6.407009 2.025829 6.425794 C 2.020166 6.444578 2.015332 6.463639 2.011464 6.482976 C 2.007735 6.502175 2.004834 6.52165 2.002901 6.541125 C 2.000967 6.560739 2 6.580352 2 6.599965 L 2 16.399966 C 2 16.419717 2.000967 16.439192 2.002901 16.458806 C 2.004834 16.478419 2.007735 16.497756 2.011464 16.517093 C 2.015332 16.536292 2.020166 16.555353 2.025829 16.574137 C 2.031492 16.592922 2.038122 16.61143 2.045718 16.629662 C 2.053177 16.647756 2.061602 16.665574 2.070857 16.682839 C 2.080111 16.700104 2.090194 16.716955 2.101105 16.733391 C 2.112017 16.74969 2.123757 16.765436 2.136188 16.780629 C 2.148619 16.795822 2.161879 16.810325 2.175691 16.824275 C 2.189641 16.838226 2.204144 16.851347 2.219337 16.863778 C 2.234531 16.876209 2.250276 16.887949 2.266713 16.898861 C 2.283011 16.909773 2.299862 16.919855 2.317127 16.92911 C 2.334531 16.938364 2.35221 16.946789 2.370442 16.954386 C 2.388536 16.961844 2.407044 16.968474 2.425829 16.974137 C 2.444613 16.9798 2.463674 16.984634 2.483011 16.988502 C 2.50221 16.992369 2.521685 16.995132 2.54116 16.997065 C 2.560774 16.998999 2.580387 16.999966 2.6 16.999966 L 4.65 16.999966 M 14.000001 16.999966 L 9.050001 16.999966 M 14.000001 8.999965 L 19.609946 8.999965 C 19.638814 8.999965 19.667543 9.002037 19.696134 9.006181 C 19.724587 9.010324 19.752764 9.01654 19.780388 9.024689 C 19.808013 9.032976 19.834946 9.043059 19.861189 9.055214 C 19.887294 9.067231 19.912571 9.081181 19.936742 9.096789 C 19.960913 9.112534 19.983841 9.129938 20.005526 9.148999 C 20.027211 9.167921 20.047377 9.188501 20.066162 9.210324 C 20.084808 9.232286 20.101935 9.25549 20.117267 9.279938 C 20.132736 9.304247 20.146272 9.329662 20.158013 9.356043 L 21.948068 13.383944 C 21.98246 13.461292 21.999864 13.542369 22.000002 13.627038 L 22.000002 16.399966 C 22.000002 16.419717 21.999035 16.439192 21.997101 16.458806 C 21.995167 16.478419 21.992267 16.497756 21.988538 16.517093 C 21.98467 16.536292 21.979836 16.555353 21.974173 16.574137 C 21.96851 16.592922 21.96188 16.61143 21.954283 16.629662 C 21.946825 16.647756 21.938399 16.665574 21.929145 16.682839 C 21.919891 16.700104 21.909808 16.716955 21.898897 16.733391 C 21.887985 16.74969 21.876245 16.765436 21.863814 16.780629 C 21.851383 16.795822 21.838123 16.810325 21.824311 16.824275 C 21.810361 16.838226 21.795858 16.851347 21.780665 16.863778 C 21.765471 16.876209 21.749725 16.887949 21.733289 16.898861 C 21.716991 16.909773 21.70014 16.919855 21.682875 16.92911 C 21.665471 16.938364 21.647792 16.946789 21.62956 16.954386 C 21.611466 16.961844 21.592957 16.968474 21.574173 16.974137 C 21.555388 16.9798 21.536328 16.984634 21.516991 16.988502 C 21.497792 16.992369 21.478317 16.995132 21.458841 16.997065 C 21.439228 16.998999 21.419615 16.999966 21.400002 16.999966 L 19.500001 16.999966 M 14.000001 16.999966 L 15.000001 16.999966 " stroke="#ffffff" stroke-width="1.5" stroke-opacity="1" stroke-miterlimit="4"/></g></svg>