<svg xmlns="http://www.w3.org/2000/svg" xmlns:xlink="http://www.w3.org/1999/xlink" width="1080" zoomAndPan="magnify" viewBox="0 0 810 809.999993" height="1080" preserveAspectRatio="xMidYMid meet" version="1.0"><defs><clipPath id="79bb5852f2"><path d="M 131.765625 131.765625 L 678.515625 131.765625 L 678.515625 678.515625 L 131.765625 678.515625 Z M 131.765625 131.765625 " clip-rule="nonzero"/></clipPath></defs><rect x="-81" width="972" fill="#ffffff" y="-80.999999" height="971.999992" fill-opacity="1"/><rect x="-81" width="972" fill="#1c398e" y="-80.999999" height="971.999992" fill-opacity="1"/><path stroke-linecap="round" transform="matrix(22.781247, 0, 0, 22.781247, 131.763702, 131.763719)" fill="none" stroke-linejoin="round" d="M 7.000085 18.999915 C 7.065586 18.999915 7.130915 18.996828 7.196073 18.990313 C 7.261231 18.983968 7.325874 18.974366 7.390175 18.961506 C 7.454475 18.948817 7.517918 18.932871 7.580504 18.913838 C 7.643261 18.894805 7.704818 18.872857 7.765346 18.847823 C 7.825874 18.822617 7.885031 18.794668 7.942815 18.763804 C 8.0006 18.732939 8.05667 18.699332 8.111197 18.662981 C 8.165552 18.626629 8.218192 18.587535 8.268775 18.54604 C 8.319358 18.504544 8.367884 18.460477 8.41418 18.414181 C 8.460476 18.367884 8.504544 18.319359 8.546039 18.268776 C 8.587534 18.218193 8.626629 18.165553 8.66298 18.111197 C 8.699331 18.05667 8.732939 18.0006 8.763803 17.942816 C 8.794667 17.885031 8.822616 17.825875 8.847822 17.765347 C 8.872857 17.704819 8.894804 17.643262 8.913837 17.580504 C 8.93287 17.517919 8.948817 17.454476 8.961505 17.390175 C 8.974365 17.325875 8.983968 17.261231 8.990312 17.196074 C 8.996828 17.130916 9.000086 17.065587 9.000086 16.999914 C 9.000086 16.934414 8.996828 16.869085 8.990312 16.803927 C 8.983968 16.738769 8.974365 16.674126 8.961505 16.609825 C 8.948817 16.545525 8.93287 16.482082 8.913837 16.419496 C 8.894804 16.356739 8.872857 16.295182 8.847822 16.234654 C 8.822616 16.174126 8.794667 16.114969 8.763803 16.057185 C 8.732939 15.9994 8.699331 15.94333 8.66298 15.888803 C 8.626629 15.834448 8.587534 15.781807 8.546039 15.731224 C 8.504544 15.680641 8.460476 15.632116 8.41418 15.58582 C 8.367884 15.539523 8.319358 15.495456 8.268775 15.453961 C 8.218192 15.412466 8.165552 15.373371 8.111197 15.33702 C 8.05667 15.300669 8.0006 15.267061 7.942815 15.236197 C 7.885031 15.205333 7.825874 15.177383 7.765346 15.152178 C 7.704818 15.127143 7.643261 15.105195 7.580504 15.086163 C 7.517918 15.06713 7.454475 15.051183 7.390175 15.038494 C 7.325874 15.025634 7.261231 15.016032 7.196073 15.009688 C 7.130915 15.003172 7.065586 15.000086 7.000085 15.000086 C 6.934413 15.000086 6.869084 15.003172 6.803926 15.009688 C 6.738768 15.016032 6.674125 15.025634 6.609825 15.038494 C 6.545524 15.051183 6.482081 15.06713 6.419495 15.086163 C 6.356738 15.105195 6.295181 15.127143 6.234653 15.152178 C 6.174125 15.177383 6.114969 15.205333 6.057184 15.236197 C 5.999399 15.267061 5.943329 15.300669 5.888803 15.33702 C 5.834447 15.373371 5.781807 15.412466 5.731224 15.453961 C 5.680641 15.495456 5.632115 15.539523 5.585819 15.58582 C 5.539523 15.632116 5.495456 15.680641 5.45396 15.731224 C 5.412465 15.781807 5.37337 15.834448 5.337019 15.888803 C 5.300668 15.94333 5.26706 15.9994 5.236196 16.057185 C 5.205332 16.114969 5.177383 16.174126 5.152177 16.234654 C 5.127143 16.295182 5.105195 16.356739 5.086162 16.419496 C 5.067129 16.482082 5.051182 16.545525 5.038494 16.609825 C 5.025634 16.674126 5.016032 16.738769 5.009687 16.803927 C 5.003171 16.869085 5.000085 16.934414 5.000085 16.999914 C 5.000085 17.065587 5.003171 17.130916 5.009687 17.196074 C 5.016032 17.261231 5.025634 17.325875 5.038494 17.390175 C 5.051182 17.454476 5.067129 17.517919 5.086162 17.580504 C 5.105195 17.643262 5.127143 17.704819 5.152177 17.765347 C 5.177383 17.825875 5.205332 17.885031 5.236196 17.942816 C 5.26706 18.0006 5.300668 18.05667 5.337019 18.111197 C 5.37337 18.165553 5.412465 18.218193 5.45396 18.268776 C 5.495456 18.319359 5.539523 18.367884 5.585819 18.414181 C 5.632115 18.460477 5.680641 18.504544 5.731224 18.54604 C 5.781807 18.587535 5.834447 18.626629 5.888803 18.662981 C 5.943329 18.699332 5.999399 18.732939 6.057184 18.763804 C 6.114969 18.794668 6.174125 18.822617 6.234653 18.847823 C 6.295181 18.872857 6.356738 18.894805 6.419495 18.913838 C 6.482081 18.932871 6.545524 18.948817 6.609825 18.961506 C 6.674125 18.974366 6.738768 18.983968 6.803926 18.990313 C 6.869084 18.996828 6.934413 18.999915 7.000085 18.999915 M 16.999915 18.999915 C 17.065587 18.999915 17.130917 18.996828 17.196074 18.990313 C 17.261232 18.983968 17.325875 18.974366 17.390176 18.961506 C 17.454476 18.948817 17.517919 18.932871 17.580505 18.913838 C 17.643262 18.894805 17.704819 18.872857 17.765347 18.847823 C 17.825876 18.822617 17.885032 18.794668 17.942817 18.763804 C 18.000601 18.732939 18.056671 18.699332 18.111198 18.662981 C 18.165553 18.626629 18.218194 18.587535 18.268777 18.54604 C 18.31936 18.504544 18.367885 18.460477 18.414182 18.414181 C 18.460478 18.367884 18.504545 18.319359 18.54604 18.268776 C 18.587535 18.218193 18.62663 18.165553 18.662981 18.111197 C 18.699332 18.05667 18.73294 18.0006 18.763804 17.942816 C 18.794669 17.885031 18.822618 17.825875 18.847824 17.765347 C 18.872858 17.704819 18.894806 17.643262 18.913839 17.580504 C 18.932872 17.517919 18.948818 17.454476 18.961507 17.390175 C 18.974367 17.325875 18.983969 17.261231 18.990313 17.196074 C 18.996829 17.130916 18.999915 17.065587 18.999915 16.999914 C 18.999915 16.934414 18.996829 16.869085 18.990313 16.803927 C 18.983969 16.738769 18.974367 16.674126 18.961507 16.609825 C 18.948818 16.545525 18.932872 16.482082 18.913839 16.419496 C 18.894806 16.356739 18.872858 16.295182 18.847824 16.234654 C 18.822618 16.174126 18.794669 16.114969 18.763804 16.057185 C 18.73294 15.9994 18.699332 15.94333 18.662981 15.888803 C 18.62663 15.834448 18.587535 15.781807 18.54604 15.731224 C 18.504545 15.680641 18.460478 15.632116 18.414182 15.58582 C 18.367885 15.539523 18.31936 15.495456 18.268777 15.453961 C 18.218194 15.412466 18.165553 15.373371 18.111198 15.33702 C 18.056671 15.300669 18.000601 15.267061 17.942817 15.236197 C 17.885032 15.205333 17.825876 15.177383 17.765347 15.152178 C 17.704819 15.127143 17.643262 15.105195 17.580505 15.086163 C 17.517919 15.06713 17.454476 15.051183 17.390176 15.038494 C 17.325875 15.025634 17.261232 15.016032 17.196074 15.009688 C 17.130917 15.003172 17.065587 15.000086 16.999915 15.000086 C 16.934415 15.000086 16.869085 15.003172 16.803928 15.009688 C 16.73877 15.016032 16.674126 15.025634 16.609826 15.038494 C 16.545526 15.051183 16.482082 15.06713 16.419497 15.086163 C 16.35674 15.105195 16.295183 15.127143 16.234654 15.152178 C 16.174126 15.177383 16.11497 15.205333 16.057185 15.236197 C 15.999401 15.267061 15.943331 15.300669 15.888804 15.33702 C 15.834449 15.373371 15.781808 15.412466 15.731225 15.453961 C 15.680642 15.495456 15.632117 15.539523 15.58582 15.58582 C 15.539524 15.632116 15.495457 15.680641 15.453962 15.731224 C 15.412466 15.781807 15.373372 15.834448 15.337021 15.888803 C 15.300669 15.94333 15.267062 15.9994 15.236198 16.057185 C 15.205333 16.114969 15.177384 16.174126 15.152178 16.234654 C 15.127144 16.295182 15.105196 16.356739 15.086163 16.419496 C 15.06713 16.482082 15.051184 16.545525 15.038495 16.609825 C 15.025635 16.674126 15.016033 16.738769 15.009689 16.803927 C 15.003173 16.869085 14.999915 16.934414 14.999915 16.999914 C 14.999915 17.065587 15.003173 17.130916 15.009689 17.196074 C 15.016033 17.261231 15.025635 17.325875 15.038495 17.390175 C 15.051184 17.454476 15.06713 17.517919 15.086163 17.580504 C 15.105196 17.643262 15.127144 17.704819 15.152178 17.765347 C 15.177384 17.825875 15.205333 17.885031 15.236198 17.942816 C 15.267062 18.0006 15.300669 18.05667 15.337021 18.111197 C 15.373372 18.165553 15.412466 18.218193 15.453962 18.268776 C 15.495457 18.319359 15.539524 18.367884 15.58582 18.414181 C 15.632117 18.460477 15.680642 18.504544 15.731225 18.54604 C 15.781808 18.587535 15.834449 18.626629 15.888804 18.662981 C 15.943331 18.699332 15.999401 18.732939 16.057185 18.763804 C 16.11497 18.794668 16.174126 18.822617 16.234654 18.847823 C 16.295183 18.872857 16.35674 18.894805 16.419497 18.913838 C 16.482082 18.932871 16.545526 18.948817 16.609826 18.961506 C 16.674126 18.974366 16.73877 18.983968 16.803928 18.990313 C 16.869085 18.996828 16.934415 18.999915 16.999915 18.999915 " stroke="#ffffff" stroke-width="1.5" stroke-opacity="1" stroke-miterlimit="1.5"/><g clip-path="url(#79bb5852f2)"><path stroke-linecap="round" transform="matrix(22.781247, 0, 0, 22.781247, 131.763702, 131.763719)" fill="none" stroke-linejoin="miter" d="M 13.999915 16.999914 L 13.999915 6.60005 C 13.999915 6.560613 13.996143 6.521518 13.988426 6.482938 C 13.98071 6.444358 13.969394 6.406806 13.954304 6.370455 C 13.939215 6.333932 13.920697 6.299467 13.89892 6.266717 C 13.876972 6.233967 13.85211 6.203617 13.824332 6.175667 C 13.796383 6.14789 13.766033 6.123027 13.733282 6.101079 C 13.700532 6.079303 13.666067 6.060784 13.629544 6.045695 C 13.593193 6.030606 13.555642 6.019289 13.517062 6.011573 C 13.478481 6.003857 13.439387 6.000084 13.399949 6.000084 L 2.60005 6.000084 C 2.560613 6.000084 2.521518 6.003857 2.482938 6.011573 C 2.444358 6.019289 2.406806 6.030606 2.370455 6.045695 C 2.333932 6.060784 2.299467 6.079303 2.266717 6.101079 C 2.233967 6.123027 2.203617 6.14789 2.175668 6.175667 C 2.14789 6.203617 2.123027 6.233967 2.101079 6.266717 C 2.079303 6.299467 2.060784 6.333932 2.045695 6.370455 C 2.030606 6.406806 2.019289 6.444358 2.011573 6.482938 C 2.003857 6.521518 2.000085 6.560613 2.000085 6.60005 L 2.000085 16.399949 C 2.000085 16.439386 2.003857 16.478481 2.011573 16.517061 C 2.019289 16.555641 2.030606 16.593193 2.045695 16.629544 C 2.060784 16.666067 2.079303 16.700532 2.101079 16.733282 C 2.123027 16.766032 2.14789 16.796382 2.175668 16.824331 C 2.203617 16.852109 2.233967 16.876972 2.266717 16.89892 C 2.299467 16.920696 2.333932 16.939215 2.370455 16.954304 C 2.406806 16.969393 2.444358 16.98071 2.482938 16.988426 C 2.521518 16.996142 2.560613 16.999914 2.60005 16.999914 L 4.649948 16.999914 M 13.999915 16.999914 L 9.049983 16.999914 M 13.999915 9.000085 L 19.609998 9.000085 C 19.667954 9.000085 19.72471 9.008315 19.780437 9.024776 C 19.835992 9.041237 19.888119 9.065243 19.936644 9.096793 C 19.985341 9.128514 20.028551 9.166237 20.066102 9.210304 C 20.103825 9.254543 20.134346 9.303068 20.158009 9.356052 L 21.947961 13.384002 C 21.982426 13.461334 21.999744 13.542267 22.000087 13.626972 L 22.000087 16.399949 C 21.999916 16.439386 21.996144 16.478481 21.988428 16.517061 C 21.980711 16.555641 21.969395 16.593193 21.954305 16.629544 C 21.939216 16.666067 21.920698 16.700532 21.898921 16.733282 C 21.876973 16.766032 21.852111 16.796382 21.824333 16.824331 C 21.796384 16.852109 21.766034 16.876972 21.733283 16.89892 C 21.700533 16.920696 21.666068 16.939215 21.629545 16.954304 C 21.593194 16.969393 21.555643 16.98071 21.517063 16.988426 C 21.478482 16.996142 21.439388 16.999914 21.39995 16.999914 L 19.500087 16.999914 M 13.999915 16.999914 L 14.999915 16.999914 " stroke="#ffffff" stroke-width="1.5" stroke-opacity="1" stroke-miterlimit="4"/></g></svg>